<?xml version="1.0" encoding="UTF-8" standalone="no"?>
<!-- Created with Inkscape (http://www.inkscape.org/) -->

<svg
   width="1000.0001"
   height="1000.0001"
   viewBox="0 0 264.58335 264.58335"
   version="1.1"
   id="svg1"
   xmlns="http://www.w3.org/2000/svg"
   xmlns:svg="http://www.w3.org/2000/svg">
  <defs
     id="defs1">
    <linearGradient
       id="swatch14">
      <stop
         style="stop-color:#000000;stop-opacity:1;"
         offset="0"
         id="stop14" />
    </linearGradient>
  </defs>
  <g
     id="layer1"
     style="display:inline">
    <path
       d="m 135.67245,144.25737 c -0.005,11.16207 -1.24023,20.91165 -3.7207,29.24876 -2.41156,8.2682 -6.40786,15.15837 -11.9889,20.67052 -5.30543,5.23652 -11.50657,9.06056 -18.60344,11.47212 -7.09688,2.41156 -15.365087,3.61734 -24.80462,3.61734 -9.64624,0 -18.052247,-1.27468 -25.21802,-3.82404 -7.165776,-2.54936 -13.194674,-6.3045 -18.086694,-11.26542 C 27.669039,188.5267 23.63829,181.70543 21.15783,173.71283 18.74627,165.72024 17.54049,155.90176 17.54049,144.25737 V 85.250868 a 7.0361723,7.0361723 118.67292 0 1 3.239688,-5.924054 l 13.984428,-8.96205 a 2.1042852,2.1042852 28.672924 0 1 3.239688,1.771688 v 73.154438 c 0,8.33711 0.551213,14.91722 1.65364,19.74034 1.171331,4.82312 3.100576,9.19837 5.787736,13.12576 3.03168,4.47861 7.131333,7.8548 12.29896,10.12856 5.236533,2.27376 11.506587,3.41064 18.81016,3.41064 7.37248,0 13.642533,-1.10243 18.81016,-3.3073 5.16763,-2.27375 9.30173,-5.68438 12.4023,-10.2319 2.68717,-3.92739 4.58197,-8.40599 5.6844,-13.43582 1.17133,-5.09873 1.757,-11.40324 1.757,-18.91352 l 3.4e-4,-86.764985 A 1.920657,1.920657 45.000113 0 0 113.28834,57.122 h -9.66207 c -1.64982,0 -2.21563,-1.09243 -1.2518,-2.431435 6.74587,-9.371749 13.8986,-18.410797 21.17997,-27.365365 1.04056,-1.279667 2.75746,-1.299936 3.81586,-0.03437 7.40992,8.860306 14.24056,18.170463 21.13223,27.43578 0.98456,1.323663 0.44702,2.395386 -1.2028,2.395386 h -9.66607 a 1.9215586,1.9215586 135.01333 0 0 -1.92155,1.920664 z"
       id="text1"
       style="font-size:105.833px;line-height:0;font-family:'Dream MMA';-inkscape-font-specification:'Dream MMA';letter-spacing:-25.3947px;fill:#000000;fill-opacity:1;stroke:none;stroke-width:25.129;stroke-dasharray:none;stroke-opacity:1"
       aria-label="U" />
    <path
       d="m 238.8372,199.46696 c -2.24493,1.00139 -4.35114,1.96117 -6.31863,2.87933 -3.03167,1.44695 -7.02797,2.96279 -11.9889,4.54752 -4.203,1.30913 -8.78496,2.41156 -13.74588,3.30728 -4.89201,0.96463 -10.30079,1.44694 -16.22634,1.44694 -11.16208,0 -21.32508,-1.55029 -30.489,-4.65086 -9.09503,-3.16948 -17.01873,-8.09595 -23.7711,-14.77942 -6.61456,-6.54567 -11.78219,-14.84832 -15.50288,-24.90796 -3.72069,-10.12856 -5.58104,-21.8763 -5.58104,-35.24322 0,-12.67791 1.79145,-24.01224 5.37434,-34.00299 3.58289,-9.990745 8.75052,-18.431203 15.50288,-25.321372 6.54567,-6.683464 14.43491,-11.782189 23.66774,-15.296176 9.30172,-3.513985 19.60252,-5.270978 30.9024,-5.270978 8.2682,0 16.50195,0.999075 24.70126,2.997224 7.17348,1.733591 15.02121,4.608196 23.54316,8.623815 2.19317,1.033438 3.94248,3.883585 3.9349,6.30808 l -0.04,12.79318 c -0.008,2.424495 -1.51216,3.108548 -3.52097,1.752951 -7.61297,-5.137419 -15.98362,-7.350504 -23.19367,-10.151102 -8.33709,-3.23838 -17.25986,-4.85757 -26.7683,-4.85757 -7.78589,0 -14.81387,1.274681 -21.08392,3.824044 -6.20115,2.480461 -11.74773,6.373407 -16.63976,11.678838 -4.75421,5.167627 -8.47491,11.713289 -11.16208,19.636986 -2.61825,7.85479 -4.68083,17.00778 -4.68083,27.34303 0,10.81756 2.20038,20.06133 5.09425,27.84722 2.96277,7.78589 6.75237,14.12485 11.36878,19.01686 4.82312,5.09873 10.43861,8.88833 16.84646,11.36878 6.47676,2.41157 13.29803,3.61736 20.4638,3.61736 9.85295,0 19.08577,-1.68809 27.69848,-5.06428 7.34325,-2.87856 15.18109,-5.26211 21.98686,-10.08725 1.97666,-1.40141 3.44883,-0.7712 3.47299,1.65319 l 0.12785,12.82928 c 0.0242,2.42439 -1.75869,5.17358 -3.97289,6.16127 z"
       id="text2"
       style="font-size:105.833px;line-height:0;font-family:'Dream MMA';-inkscape-font-specification:'Dream MMA';letter-spacing:-25.3947px;fill:#000000;fill-opacity:1;stroke:#ffffff;stroke-width:2;stroke-linecap:butt;stroke-linejoin:bevel;stroke-dasharray:none;stroke-dashoffset:0;stroke-opacity:1;paint-order:normal"
       aria-label="C" />
  </g>
</svg>
